<svg xmlns="http://www.w3.org/2000/svg" width="34px" height="34px" viewBox="0 0 32 32" fill="#565757">
    <title>Glitch</title>
    <path
        d="M12.189453 3.1894531c-.823 0-2.3886717 2.1445313-2.3886718 2.1445313 1e-7 0-.6042968-.00025-2.4042968.09375s-3.4010158.894125-5.5410156 2.578125C-.2845313 9.6898596.01757813 11.376953.01757813 11.376953s1.99609377.676016 1.99609377 1.041016-1.7480469.798828-1.7480469.798828c1.126 1.441 4.6209062 2.785156 5.5039062 2.785156.2821006 0 .5266887-.005766.7792969-.009765-1.4756026.27208-2.8946297 1.057207-4.6933593 2.472656-2.1400001 1.684-1.83789067 3.371094-1.83789067 3.371094 0-.000002 1.99609377.676015 1.99609377 1.041015s-1.7480469.796875-1.7480469.796875c1.126 1.441 4.6209062 2.787109 5.5039062 2.78711.8470001 0 1.4378125.02227 2.5078126-.177735v.001953c.0809999.179.915141 1.9465 2.6191402 2.3125 1.795.386 2.78711.083985 2.78711.083985s.09064-.792985-.31836-1.583985c1.557.153 3.323735.191686 5.052735-.070312 4.802-.729 7.170312-1.88411 7.945312-2.03711.775-.153 5.202657 1.966702 5.472657 1.470704.27-.496001-.973532-1.582829-.394532-3.048829.58-1.466-.712087-2.432515.003906-3.603515.716-1.171.573625-2.956781.390626-3.050782-.393001-.201999-4.562657 1.873079-5.472657 1.705079-2.248-.416-1.834375-.684141-4.859375-1.369141-1.209-.273-1.041593-.111453-1.308594-.314453-.175744-.133618-.3511-.175548-.595703-.414063 3.998985-.723253 6.056514-1.694377 6.763672-1.833984.775-.153 5.202657 1.968656 5.472657 1.472656.27-.496-.973532-1.584781-.394532-3.050781.58-1.466-.712088-2.432516.003906-3.6035156.716-1.1710001.573625-2.9567813.390626-3.0507813-.393001-.2020001-4.562657 1.8750312-5.472657 1.7070313-2.248-.4160001-1.834375-.6860939-4.859375-1.3710938-1.209-.2730002-1.041594-.1114529-1.308594-.3144531-.266998-.2029998-.519968-.1413282-1.042968-.9863281-.523-.845-6.551891-2.1445313-6.962891-2.1445313zm-1.40625 3.6816407c.01.001.012688.0009062.054688.0039062s.090484.0048125.146484.0078125c.159.008.337297.0173438.529297.0273437.547.029 1.094469.0569376 1.605469.0859376.179.0099999.350671.0192968.513671.0292968.463.027.852344.0532188 1.152344.0742188 1.148.081 2.894375.3461875 4.234375.6171875 2.072.419 3.756157 1.0365156 6.410157 2.2285156.2.0900005.88539.3992505.90039.4062495.175.079001.260406.304907.191406.503907-.069.199-.268359.295797-.443359.216797-.016-.007-.701391-.31625-.900391-.40625-2.615-1.1750004-4.262297-1.7795004-6.279296-2.1875004-1.316001-.266-3.03825-.5284219-4.15625-.6074218-.297001-.021-.683532-.0433125-1.144532-.0703126-.162-.009-.331765-.0192968-.509765-.0292968-.51-.029-1.058469-.0588907-1.605469-.0878906v.0019531c-.057-.003-.112969-.0067656-.167969-.0097657.049.1300001.096578.2643438.142578.4023438.135.406.242547.8046406.310547 1.1816406.026.146.044594.2887813.058594.4257813.045.4480001-.036844 1.0885781-.214844 1.8925781-.059.266-.129078.545031-.205078.832031-.093.349-.192016.693578-.291016 1.017578-.035.114-.066703.217594-.095703.308594-.01.032-.019344.059985-.027343.083984-.005001.015-.007766.02525-.009766.03125-.067.200001-.263453.29961-.439453.22461-.176-.075-.265219-.298047-.199219-.498047.002-.004.005766-.014344.009766-.027344.008-.023.01539-.050078.02539-.080078.028-.087.05975-.186875.09375-.296875.096-.315.19125-.650281.28125-.988281.073-.277.139313-.542875.195313-.796875.16-.719.232218-1.288188.199219-1.6171876-.011001-.114-.028782-.235375-.050782-.359375-.06-.333-.156297-.6915469-.279297-1.0605469-.078-.233-.16114-.4561563-.24414-.6601563-.029-.071-.056078-.1344531-.080078-.1894531-.014-.032-.022344-.0544531-.027344-.0644531-.121-.265.053406-.5794062.316406-.5664062zm-2.2011718.2285156c.0872501.003.1737813.0430937.2382813.1210937.038.046.0997344.1263281.1777344.2363281.128.181.2569531.3826094.3769531.5996094.299.539.4987344 1.0869532.5527344 1.6269532.031.3069999.0121718.6513442-.0488282 1.0273442-.058.359999-.1543906.739-.2753906 1.125-.073.231999-.1485625.452296-.2265625.654296-.047.122-.0854218.212672-.1074219.263672-.0829999.192-.2880312.270782-.4570312.175782-.169-.095-.2372969-.327532-.1542969-.519532.004-.009.0114375-.029594.0234375-.058594.021-.049999.0453125-.106875.0703125-.171874.071-.186001.1419844-.390516.2089844-.603516.11-.35.1950937-.69086.2460937-1.00586.05-.307.0649688-.5777807.0429688-.8007808-.041-.407-.204125-.8537343-.453125-1.3027343-.105-.19-.2170781-.3663906-.3300781-.5253907-.04-.0549999-.077375-.1025312-.109375-.1445312-.018-.024-.0301563-.0379219-.0351563-.0449219-.129-.156-.121375-.4028281.015625-.5488281.0685-.073.1568906-.1065156.2441406-.1035156zM4.5273438 8.390625c.8259999 0 1.4941406.7602656 1.4941406 1.697266 0 .937-.6681406 1.695312-1.4941406 1.695312-.7400001 0-1.3546094-.610156-1.4746094-1.410156.103.602.5698593 1.058594 1.1308594 1.058594.636 0 1.1523437-.585594 1.1523437-1.308594 0-.7230001-.5163438-1.3085939-1.1523437-1.3085939-.6320001 0-1.1443438.5770157-1.1523438 1.2910159v-.017578c0-.9370004.6700937-1.697266 1.4960938-1.697266zm-.6855469 1.767578c.172 0 .3105469.158516.3105469.353516s-.1385469.351562-.3105469.351562c-.172 0-.3125-.156562-.3125-.351562 0-.195.1405-.353516.3125-.353516zm6.9414061 7.171875c.01.001.012688.000906.054688.003906s.090484.004813.146484.007813c.159.008.337297.017344.529297.027344.547.029 1.094469.056937 1.605469.085937.179.01.350671.019297.513671.029297.463.027.852344.053219 1.152344.074219 1.148.081 2.894375.346187 4.234375.617187 2.072.419 3.756157 1.036516 6.410157 2.228516.2.09.88539.39925.90039.40625.175.079.260406.304906.191406.503906-.069.199-.268359.295797-.443359.216797-.016-.007-.701391-.31625-.900391-.40625-2.615-1.175-4.262297-1.7795-6.279296-2.1875-1.316001-.266-3.03825-.528422-4.15625-.607422-.297001-.021-.683532-.043312-1.144532-.070312-.162-.009-.331765-.019297-.509765-.029297-.51-.029-1.058469-.058891-1.605469-.087891v.001953c-.057-.003-.112969-.006765-.167969-.009765.049.13.096578.264343.142578.402343.135.406.242547.804641.310547 1.181641.026.146.044594.288781.058594.425781.045.448-.036844 1.088578-.214844 1.892578-.059.266-.129078.545032-.205078.832032-.093.349-.192016.693578-.291016 1.017578-.035.114-.066703.217593-.095703.308593-.01.032001-.019344.059985-.027343.083985-.005001.015-.007766.02525-.009766.03125-.067.2-.263453.299609-.439453.224609-.176-.075-.265219-.298047-.199219-.498047.002-.004.005766-.014343.009766-.027343.008-.023.01539-.050078.02539-.080078.028-.087001.05975-.186876.09375-.296876.096-.314999.19125-.650281.28125-.988281.073-.277.139313-.542875.195313-.796875.16-.719.232218-1.288187.199219-1.617187-.011001-.114-.028782-.234375-.050782-.359375-.06-.333-.156297-.691547-.279297-1.060547-.078-.233-.16114-.456156-.24414-.660156-.029-.071-.056078-.134454-.080078-.189453-.014-.032001-.022344-.054454-.027344-.064454-.121-.265.053406-.579406.316406-.566406zm-2.2011718.228516c.0872501.003.1737813.043094.2382813.121094.038.045999.0997344.126328.1777344.236328.128.181.2569531.382609.3769531.599609.299.539.4987344 1.085953.5527344 1.626953.031.307.0121718.651344-.0488282 1.027344-.058.36-.1543906.739-.2753906 1.125-.073.232-.1485625.452297-.2265625.654297-.047.122-.0854218.212672-.1074219.263672-.0829999.192-.2880312.270781-.4570312.175781-.169-.095-.2372969-.327531-.1542969-.519531.004-.009.0114375-.029594.0234375-.058594.021-.05.0453125-.106875.0703125-.171875.071-.186.1419844-.390516.2089844-.603516.11-.35.1950937-.690859.2460937-1.005859.05-.307.0649688-.577781.0429688-.800781-.041-.407-.204125-.853735-.453125-1.302735-.105-.19-.2170781-.36639-.3300781-.52539-.04-.055-.077375-.102532-.109375-.144532-.018-.024-.0301563-.037921-.0351563-.044921-.129-.156001-.121375-.402829.015625-.548829.0685-.073.1568906-.106515.2441406-.103515zm-4.0546874 1.291015c.8259999 0 1.4941406.760266 1.4941406 1.697266 0 .937-.6681406 1.695312-1.4941406 1.695313-.7400001 0-1.3546094-.610157-1.4746094-1.410157.103.602.5698593 1.058594 1.1308594 1.058594.636 0 1.1523437-.585594 1.1523437-1.308594 0-.723-.5163438-1.308593-1.1523437-1.308593-.6320001 0-1.1443438.577015-1.1523438 1.291015v-.017578c0-.937.6700937-1.697266 1.4960938-1.697266zm-.6855469 1.767579c.172 0 .3105469.158515.3105469.353515 0 .195-.1385469.351563-.3105469.351563-.172 0-.3125-.156563-.3125-.351563s.1405-.353515.3125-.353515z">
    </path>
</svg>